# xmcd CD database file
#
# Track frame offsets:
#	150
#	17840
#	36640
#	54272
#	70590
#	84675
#	104095
#	120207
#	138782
#	155082
#	177642
#	195995
#
# Disc length: 2863 seconds
#
# Revision: 1
# Processed by: cddbd v1.5.2PL0 Copyright (c) Steve Scherf et al.
# Submitted via: CDex 2.11
#
DISCID=a10b2d0c
DTITLE=Kathie Lee - Heart Of A Woman
DYEAR=2000
DGENRE=Country
TTITLE0=The Hardest Part
TTITLE1=Heart Of A Woman
TTITLE2=Love Never Fails
TTITLE3=Reason Enough
TTITLE4=In This Life
TTITLE5=Always Been You
TTITLE6=I Don't Wanna Say Goodbye
TTITLE7=Make My Day
TTITLE8=Heartache,Heartache
TTITLE9=We Don't Make Love Anymore
TTITLE10=If Only Then Was Now
TTITLE11=The Hardest Part(Remix)
EXTD=YEAR: 2000
EXTT0=
EXTT1=
EXTT2=
EXTT3=
EXTT4=
EXTT5=
EXTT6=
EXTT7=
EXTT8=
EXTT9=
EXTT10=
EXTT11=
PLAYORDER=
